<?xml version="1.0" encoding="UTF-8"?>
<svg version="1.1" xmlns="http://www.w3.org/2000/svg" width="1200" height="799">
<path d="M0 0 C396 0 792 0 1200 0 C1200 263.67 1200 527.34 1200 799 C804 799 408 799 0 799 C0 535.33 0 271.66 0 0 Z " fill="#2CA4A9" transform="translate(0,0)"/>
<path d="M0 0 C396 0 792 0 1200 0 C1200 263.67 1200 527.34 1200 799 C804 799 408 799 0 799 C0 535.33 0 271.66 0 0 Z M25.1875 26.125 C22.36018642 29.84089785 21.87491975 31.38749597 21.8723495 35.95959586 C21.86933353 37.01729193 21.86631756 38.074988 21.8632102 39.16473547 C21.86497967 40.33827875 21.86674914 41.51182204 21.86857224 42.72092724 C21.8665196 43.96378078 21.86446697 45.20663433 21.86235213 46.4871501 C21.85676111 49.96356699 21.85746233 53.43995936 21.85912972 56.91637931 C21.85985812 60.68845035 21.85484426 64.46051433 21.8505547 68.23258239 C21.84295756 75.72600842 21.84078078 83.21942732 21.84022565 90.71285679 C21.83931369 99.68354009 21.83265116 108.65421676 21.82587883 117.62489722 C21.80979894 139.31018693 21.8039133 160.99547594 21.79913008 182.68077054 C21.79679613 192.93445181 21.7931937 203.18813252 21.7894347 213.44181336 C21.77659746 248.52421783 21.76587839 283.60662198 21.7624321 318.68902874 C21.76221046 320.89239309 21.76198868 323.09575744 21.76176675 325.29912179 C21.7615461 327.50788674 21.76132562 329.71665169 21.7611053 331.92541665 C21.76066274 336.35677191 21.76021563 340.78812716 21.75976562 345.21948242 C21.75965623 346.31820556 21.75954684 347.41692869 21.75943414 348.54894647 C21.75580261 384.18399303 21.73987982 419.81901926 21.71657526 455.45405804 C21.6919956 493.10752855 21.67826013 530.76098743 21.67706418 568.4144662 C21.67689272 572.54557058 21.67667729 576.67667494 21.67642975 580.80777931 C21.67637398 581.8250131 21.67631821 582.8422469 21.67626075 583.89030595 C21.67510867 600.28178096 21.66407334 616.67323516 21.64954269 633.06470313 C21.63519726 649.5316372 21.63192963 665.9985445 21.63998267 682.46548309 C21.64444819 692.25546029 21.6405416 702.04535128 21.62474416 711.83531721 C21.61502334 718.36990348 21.61614458 724.90442908 21.62618039 731.43901474 C21.63159345 735.16554438 21.63221535 738.89190799 21.61967167 742.61842414 C21.60628399 746.62903409 21.61599682 750.6392531 21.6280632 754.64986706 C21.62046801 755.81170451 21.61287282 756.97354197 21.60504746 758.17058662 C21.65018623 765.0736154 22.01716472 770.52579278 26.68359375 775.9609375 C27.26238281 776.42757812 27.84117188 776.89421875 28.4375 777.375 C29.01371094 777.85710938 29.58992188 778.33921875 30.18359375 778.8359375 C34.34880821 781.50525773 38.92814896 781.14174482 43.72265899 781.1276505 C44.51033997 781.12930128 45.29802095 781.13095206 46.10957105 781.13265286 C48.77034034 781.13699445 51.43105473 781.13417134 54.09182549 781.13142776 C56.0183949 781.13307661 57.94496398 781.13516252 59.8715325 781.13764787 C65.20212042 781.14323445 70.53269234 781.14253848 75.86328225 781.14087028 C81.64876972 781.14014146 87.4342526 781.14515672 93.21973813 781.1494453 C104.03981059 781.15659641 114.85987857 781.15917406 125.67995322 781.15967258 C135.90780324 781.16018969 146.13564985 781.1630481 156.36349869 781.16798782 C157.39478642 781.16848302 157.39478642 781.16848302 158.44690824 781.16898823 C161.24697284 781.17033819 164.04703743 781.17170085 166.84710202 781.17308033 C200.01505337 781.18939187 233.18300402 781.19576989 266.35095871 781.2005282 C282.86157358 781.20291027 299.37218805 781.20661349 315.88280262 781.2105653 C368.82425671 781.2232299 421.76571079 781.23401431 474.70716638 781.23740576 C477.23799372 781.237568 479.76882105 781.23773356 482.29964839 781.23790014 C487.37538659 781.23823395 492.45112478 781.23856443 497.52686298 781.2388947 C503.46950496 781.2392816 509.41214695 781.23967121 515.35478893 781.24006577 C517.0556305 781.24017818 518.75647208 781.2402896 520.45731365 781.24040002 C575.09955159 781.24395057 629.74177638 781.25903351 684.38400931 781.28233776 C723.64259297 781.29907429 762.90117416 781.31455224 802.15976143 781.31907272 C802.9667449 781.31916621 803.77372837 781.3192597 804.60516589 781.31935601 C822.31849832 781.32137484 840.03183072 781.32253107 857.74516326 781.3228846 C864.08296032 781.32302078 870.42075737 781.32322977 876.75855441 781.32347785 C878.33529447 781.32353941 879.91203453 781.32359773 881.48877459 781.3236528 C906.63482444 781.3245734 931.78086058 781.33455093 956.92690592 781.34911029 C982.24661255 781.36371157 1007.56630235 781.36877722 1032.88601244 781.36069075 C1036.381908 781.35957531 1039.87780358 781.35856466 1043.37369919 781.35761642 C1044.40167108 781.35733147 1044.40167108 781.35733147 1045.45041008 781.35704076 C1055.65332988 781.35447058 1065.85622161 781.36030367 1076.05913544 781.37107468 C1087.40036118 781.38299457 1098.74153121 781.38520131 1110.08275865 781.37381961 C1115.79800262 781.36839525 1121.51313825 781.36782054 1127.22837351 781.38032833 C1132.42127807 781.3915988 1137.61398527 781.38921889 1142.80688272 781.37566125 C1144.67993652 781.37321316 1146.55300519 781.37586039 1148.42604265 781.38405773 C1150.95981897 781.39442322 1153.49289232 781.38643434 1156.02664268 781.37374616 C1156.75475458 781.38115465 1157.48286647 781.38856315 1158.23304237 781.39619615 C1163.72806698 781.33809928 1167.79796143 780.03123054 1171.86328125 776.28125 C1172.34152344 775.6934375 1172.81976562 775.105625 1173.3125 774.5 C1173.80363281 773.9121875 1174.29476563 773.324375 1174.80078125 772.71875 C1177.03628313 769.51477336 1177.12575914 766.68700779 1177.12880117 762.90864295 C1177.13370946 761.31619344 1177.13370946 761.31619344 1177.13871691 759.69157323 C1177.13723328 758.51876677 1177.13574966 757.3459603 1177.13422108 756.13761425 C1177.13657331 754.89161889 1177.13892554 753.64562353 1177.14134905 752.36187074 C1177.14776707 748.88131239 1177.14790924 745.40077707 1177.14707164 741.92021393 C1177.14724078 738.14192795 1177.1531429 734.3636503 1177.1583125 730.58536845 C1177.16765258 723.08175782 1177.17156291 715.57815309 1177.17383147 708.07453736 C1177.17678983 699.09090477 1177.18548501 690.10728004 1177.19424575 681.12365157 C1177.21510491 659.40884954 1177.22556178 637.69404614 1177.23437535 615.97923643 C1177.23857928 605.71169721 1177.24380157 595.44415858 1177.24905988 585.17661986 C1177.26695027 550.04637335 1177.28194789 514.91612667 1177.28938007 479.78587627 C1177.28985483 477.57980076 1177.29033072 475.37372525 1177.29080774 473.16764973 C1177.29104411 472.07361054 1177.29128049 470.97957134 1177.29152403 469.85237944 C1177.29272525 464.30921975 1177.29394069 458.76606007 1177.29516602 453.22290039 C1177.29552624 451.57280161 1177.29552624 451.57280161 1177.29589374 449.88936751 C1177.30379042 414.20550588 1177.32722975 378.52167745 1177.35972196 342.83783032 C1177.39399295 305.13182165 1177.41372862 267.42583242 1177.41702431 229.71980792 C1177.41744187 225.58340092 1177.41792144 221.44699392 1177.41844749 217.31058693 C1177.41857069 216.29204906 1177.41869388 215.2735112 1177.4188208 214.22410855 C1177.4211561 197.80923706 1177.4368343 181.39440404 1177.45728934 164.97954628 C1177.47751026 148.49146295 1177.48304236 132.00342598 1177.47351871 115.51533254 C1177.46828935 105.71178305 1177.47424866 95.90838755 1177.49605338 86.10486012 C1177.50950884 79.56254143 1177.50853126 73.02032935 1177.49565142 66.47800973 C1177.48871961 62.74622231 1177.48820416 59.01473038 1177.50521151 55.28296872 C1177.52335939 51.26838769 1177.51076542 47.25449983 1177.49498463 43.23990917 C1177.50520683 42.07412621 1177.51542904 40.90834324 1177.52596101 39.70723352 C1177.47218964 33.48907866 1177.21044344 29.70634511 1173 25 C1167.49650973 20.04685875 1163.61119622 18.70151997 1156.26451695 18.74700034 C1155.47544712 18.74394724 1154.68637728 18.74089415 1153.87339624 18.73774853 C1151.20783656 18.72990463 1148.54250082 18.73639817 1145.87693977 18.74273109 C1143.94695854 18.74003985 1142.01697836 18.73647324 1140.08700019 18.73210663 C1134.74692512 18.72260265 1129.40691785 18.72566407 1124.06683933 18.73066217 C1118.27108147 18.73391557 1112.47533852 18.72565735 1106.67958534 18.71884382 C1095.840296 18.7078324 1085.0010272 18.70593831 1074.16173314 18.70816934 C1063.91571677 18.71018243 1053.66971266 18.70749484 1043.42369843 18.70061111 C1042.73495339 18.70015181 1042.04620835 18.6996925 1041.33659226 18.69921928 C1038.53155968 18.69733606 1035.72652712 18.69542469 1032.92149458 18.6934769 C1003.63840727 18.67317264 974.3553276 18.66706436 945.07223405 18.66589268 C941.91886911 18.66576318 938.76550417 18.66562731 935.61213923 18.66548586 C934.82965655 18.66545185 934.04717387 18.66541784 933.24097959 18.6653828 C915.91265079 18.6645664 898.58432346 18.66018824 881.25599543 18.65517417 C874.12413987 18.6531175 866.99228428 18.65113746 859.86042869 18.64914167 C858.67847011 18.6488099 858.67847011 18.6488099 857.47263357 18.64847143 C812.30883388 18.63582062 767.14503515 18.62757349 721.9812336 18.62848854 C720.29050964 18.6285201 718.59978568 18.62855157 716.90906172 18.62858296 C709.27531551 18.62872973 701.6415693 18.62890607 694.00782308 18.62909073 C690.60363107 18.62917297 687.19943906 18.62925327 683.79524705 18.62933335 C682.09138636 18.62937414 680.38752567 18.62941618 678.68366499 18.62945947 C624.79609748 18.63082021 570.90855624 18.61618219 517.02099609 18.58837891 C503.44288198 18.58137712 489.86476784 18.57443831 476.28665352 18.56785011 C475.03264051 18.56724149 475.03264051 18.56724149 473.7532939 18.56662057 C447.995914 18.55419494 422.23853626 18.5466603 396.48115349 18.54413414 C395.67273815 18.54405424 394.86432281 18.54397434 394.03141004 18.54389201 C376.28665057 18.54218564 358.54189123 18.54166301 340.7971317 18.54223277 C334.44809061 18.54242574 328.09904952 18.54252983 321.75000843 18.54259023 C320.17047096 18.54260605 318.59093349 18.54262646 317.01139602 18.54265147 C291.82069736 18.54300443 266.63002115 18.53159563 241.43932893 18.51434384 C216.0746737 18.49706118 190.7100496 18.49264666 165.34539096 18.50586648 C161.84329526 18.50769118 158.34119951 18.50937771 154.8391037 18.51098251 C153.80930857 18.51146278 153.80930857 18.51146278 152.7587095 18.51195274 C142.53765897 18.51637735 132.3166571 18.50960775 122.09561539 18.4962616 C110.73424421 18.48149936 99.37297331 18.47969732 88.01160225 18.49602441 C82.28617873 18.50383902 76.56094666 18.50519211 70.83553614 18.48910971 C65.63336674 18.47462421 60.43154942 18.47833859 55.22939608 18.49695744 C53.35300854 18.50041792 51.47659391 18.49708567 49.60023386 18.48635503 C47.06178339 18.47280313 44.52458256 18.48372029 41.98618138 18.50090468 C41.25675098 18.49110544 40.52732057 18.4813062 39.77578622 18.47121002 C33.44980269 18.56088787 29.0458397 21.19561617 25.1875 26.125 Z " fill="#FEFEFE" transform="translate(0,0)"/>
<path d="M0 0 C9.9 0 19.8 0 30 0 C30.763125 3.031875 31.52625 6.06375 32.3125 9.1875 C33.7229057 14.09100499 34.84700777 17.94477611 38.671875 21.4453125 C42.5078235 23.25961247 45.23892828 24.50397229 49.4296875 23.3046875 C53.68740357 21.143476 57.80635931 18.74870139 61.94140625 16.36328125 C65 15 65 15 66.91845703 15.17358398 C71.53317174 17.00572207 74.85528139 21.30084018 78.3125 24.75 C79.16134766 25.56210937 80.01019531 26.37421875 80.88476562 27.2109375 C81.68205078 28.00242187 82.47933594 28.79390625 83.30078125 29.609375 C84.40160034 30.6917041 84.40160034 30.6917041 85.5246582 31.79589844 C87 34 87 34 86.85327148 36.57226562 C85.89531684 39.2978453 84.49422066 41.55260904 82.91381836 43.96118164 C79.21019939 49.41798402 79.21019939 49.41798402 78.10546875 55.73828125 C78.90266337 57.9651864 79.8605843 59.93152227 81 62 C81.37229359 63.65839874 81.7293569 65.32201275 82 67 C83.258125 67.268125 84.51625 67.53625 85.8125 67.8125 C91.24542063 69.05618063 96.62293508 70.53352775 102 72 C102 81.9 102 91.8 102 102 C98.968125 102.763125 95.93625 103.52625 92.8125 104.3125 C87.90899501 105.7229057 84.05522389 106.84700777 80.5546875 110.671875 C78.74038753 114.5078235 77.49602771 117.23892828 78.6953125 121.4296875 C80.856524 125.68740357 83.25129861 129.80635931 85.63671875 133.94140625 C87 137 87 137 86.85107422 138.90698242 C85.68592146 141.77240255 83.95199511 143.3847995 81.74609375 145.546875 C80.89208984 146.39121094 80.03808594 147.23554688 79.15820312 148.10546875 C78.26037109 148.97816406 77.36253906 149.85085938 76.4375 150.75 C75.53580078 151.63816406 74.63410156 152.52632812 73.70507812 153.44140625 C71.47662902 155.63448315 69.24148407 157.82026044 67 160 C65.89140625 159.43410156 64.7828125 158.86820313 63.640625 158.28515625 C62.17719097 157.54405825 60.71364333 156.80318456 59.25 156.0625 C58.52039063 155.68931641 57.79078125 155.31613281 57.0390625 154.93164062 C56.33007812 154.57392578 55.62109375 154.21621094 54.890625 153.84765625 C54.24125977 153.51773682 53.59189453 153.18781738 52.92285156 152.84790039 C50.93517284 151.97141382 49.14316383 151.36093088 47 151 C44.42331961 151.96295859 44.42331961 151.96295859 41.875 153.4375 C37.16893733 156 37.16893733 156 35 156 C34.87753906 156.82757813 34.75507813 157.65515625 34.62890625 158.5078125 C33.9351891 162.35988164 32.97127367 166.10437414 31.9375 169.875 C30.9784375 173.401875 30.9784375 173.401875 30 177 C20.1 177 10.2 177 0 177 C-0.99 173.74125 -1.98 170.4825 -3 167.125 C-3.31324219 166.09906738 -3.62648438 165.07313477 -3.94921875 164.01611328 C-4.31466797 162.80544189 -4.31466797 162.80544189 -4.6875 161.5703125 C-4.93886719 160.74289551 -5.19023437 159.91547852 -5.44921875 159.06298828 C-6 157 -6 157 -6 155 C-7.3303125 154.8453125 -7.3303125 154.8453125 -8.6875 154.6875 C-12 154 -12 154 -14.5625 152.375 C-16.8618118 150.77688456 -16.8618118 150.77688456 -19.2421875 151.1875 C-23.86774186 152.55026956 -27.79911949 155.17844446 -31.94140625 157.6015625 C-35 159 -35 159 -37.10546875 159 C-39.83531 157.55909411 -41.62890303 155.61093343 -43.75 153.375 C-47.50163552 149.48997299 -51.32695596 145.89321716 -55.50390625 142.47265625 C-57 141 -57 141 -58 138 C-57.25561523 136.17822266 -57.25561523 136.17822266 -56.05859375 134.1640625 C-55.43114258 133.06191406 -55.43114258 133.06191406 -54.79101562 131.9375 C-53.89107344 130.39993643 -52.98484167 128.86603639 -52.07226562 127.3359375 C-49.44225282 123.01748295 -49.44225282 123.01748295 -49.65625 118.1875 C-50.0996875 117.465625 -50.543125 116.74375 -51 116 C-51.350625 114.80375 -51.70125 113.6075 -52.0625 112.375 C-54.10853089 108.81094619 -54.37880703 108.47642899 -58 107.25 C-59.66004423 106.80768558 -61.32764233 106.39320314 -63 106 C-65.00130916 105.46319051 -67.00131921 104.92151428 -69 104.375 C-69.928125 104.13523437 -70.85625 103.89546875 -71.8125 103.6484375 C-74 103 -74 103 -75 102 C-75.08783542 99.78144736 -75.10694609 97.56011504 -75.09765625 95.33984375 C-75.0962413 94.67537735 -75.09482635 94.01091095 -75.09336853 93.3263092 C-75.08775518 91.19666101 -75.07520054 89.06711661 -75.0625 86.9375 C-75.05748671 85.49674631 -75.05292351 84.05599097 -75.04882812 82.61523438 C-75.03778145 79.07678898 -75.02050792 75.53840461 -75 72 C-74.39003174 71.87061035 -73.78006348 71.7412207 -73.15161133 71.60791016 C-61.40786195 69.4486486 -61.40786195 69.4486486 -51.45703125 63.55078125 C-49.16527506 59.05463788 -48.51986654 55.86830627 -50 51 C-51.2494222 48.17349208 -52.64262751 45.4316059 -54.0625 42.6875 C-54.43955078 41.94693359 -54.81660156 41.20636719 -55.20507812 40.44335938 C-56.13128157 38.62612478 -57.06490629 36.81267596 -58 35 C-55.24099916 32.11749017 -52.46589896 29.25160179 -49.67480469 26.40014648 C-48.72751645 25.42769895 -47.78476221 24.45081335 -46.84667969 23.46948242 C-45.49831092 22.06053683 -44.13218107 20.66865627 -42.765625 19.27734375 C-41.94868164 18.43421631 -41.13173828 17.59108887 -40.29003906 16.72241211 C-38 15 -38 15 -35.91186523 15.1105957 C-33.42896588 16.26564644 -31.1119548 17.67041749 -28.77075195 19.08642578 C-22.84739086 22.77964514 -22.84739086 22.77964514 -16.15625 23.9296875 C-13.88837429 23.15105017 -12.03538294 22.25855235 -10 21 C-9.33734131 20.73638672 -8.67468262 20.47277344 -7.99194336 20.20117188 C-5.41305153 18.64606123 -5.13451333 17.50402271 -4.296875 14.6484375 C-4.06323242 13.88192871 -3.82958984 13.11541992 -3.58886719 12.32568359 C-3.31204102 11.35195801 -3.03521484 10.37823242 -2.75 9.375 C-1.8425 6.28125 -0.935 3.1875 0 0 Z " fill="#FDFEFE" transform="translate(364,323)"/>
<path d="M0 0 C0.91507324 0.00644531 1.83014648 0.01289063 2.77294922 0.01953125 C16.21718881 0.3772285 26.52961197 4.9129865 36.875 13.5 C38.15503906 14.47259766 38.15503906 14.47259766 39.4609375 15.46484375 C47.75987584 22.46119792 54.13730798 34.88861294 55.06787109 45.75146484 C55.68639397 64.63328135 52.99421909 79.82531624 39.625 94.25 C27.59477435 105.52156278 13.84496707 110.03270359 -2.359375 109.7421875 C-16.74151797 108.8171949 -30.16734923 102.78873531 -39.94140625 92.1640625 C-51.1527858 78.48577833 -55.09824062 63.96524534 -54.125 46.5 C-51.87975158 32.58653146 -44.18334075 20.11764993 -33.421875 11.12890625 C-23.41565748 4.03266015 -12.23163136 -0.09089081 0 0 Z " fill="#28A3A7" transform="translate(378.125,355.5)"/>
<path d="M0 0 C8.3258801 5.92361004 13.21504621 14.89930896 16.3125 24.4375 C16.9003125 26.231875 16.9003125 26.231875 17.5 28.0625 C22.07325852 47.05911233 20.47308406 68.32726051 10.41796875 85.21484375 C4.29935197 94.58007351 -3.79933825 99.85483258 -14.6875 102.4375 C-26.33475249 103.7289437 -36.02635431 102.40322867 -45.875 95.8125 C-55.65549379 87.92500501 -61.7485351 74.6945714 -63.6875 62.4375 C-63.99510565 57.66392963 -64.01216848 52.90721116 -64 48.125 C-64.01611328 46.87009766 -64.03222656 45.61519531 -64.04882812 44.32226562 C-64.05691043 28.81232882 -59.64906278 14.73746544 -48.74609375 3.33984375 C-34.79386657 -9.55339086 -15.79553239 -9.33126485 0 0 Z " fill="#3AAAAE" transform="translate(926.6875,325.5625)"/>
<path d="M0 0 C13.2404073 10.59232584 18.6913676 23.69980584 20.8125 40.25 C22.44097608 59.03576909 19.25678891 77.30135425 7.0625 92.25 C0.06534291 99.57514883 -8.42127665 103.30240104 -18.43188477 103.54272461 C-31.00857422 103.64719716 -39.90118276 101.22504403 -49.1875 92.25 C-63.2037123 76.48528636 -63.04036523 56.10912489 -62.1875 36.25 C-61.05360743 22.77749378 -54.97602367 11.46272816 -45.1875 2.25 C-31.89843653 -8.66504187 -14.44084924 -7.92830939 0 0 Z " fill="#35A8AC" transform="translate(780.1875,324.75)"/>
<path d="M0 0 C13.2404073 10.59232584 18.6913676 23.69980584 20.8125 40.25 C22.44097608 59.03576909 19.25678891 77.30135425 7.0625 92.25 C0.06534291 99.57514883 -8.42127665 103.30240104 -18.43188477 103.54272461 C-31.00857422 103.64719716 -39.90118276 101.22504403 -49.1875 92.25 C-63.2037123 76.48528636 -63.04036523 56.10912489 -62.1875 36.25 C-61.05360743 22.77749378 -54.97602367 11.46272816 -45.1875 2.25 C-31.89843653 -8.66504187 -14.44084924 -7.92830939 0 0 Z M-42.22265625 15.55078125 C-44.23768054 18.31893589 -45.56325768 20.90521486 -46.875 24.0625 C-47.29136719 25.03832031 -47.70773437 26.01414062 -48.13671875 27.01953125 C-52.76276832 41.24162417 -52.20615924 61.97501495 -45.9375 75.5 C-41.80389818 83.16972137 -36.5985268 89.3876701 -28.1875 92.25 C-20.60812146 93.11961469 -13.62453875 93.18256116 -7.140625 88.8359375 C0.73198521 82.44337801 5.94835377 74.29352572 7.8125 64.25 C8.28074174 59.3712232 8.40798641 54.52456719 8.4375 49.625 C8.44837646 48.41046143 8.45925293 47.19592285 8.47045898 45.94458008 C8.25472196 32.14021202 4.67847879 20.42806873 -4.9375 10.375 C-17.66827315 2.05103294 -32.24769097 4.27390111 -42.22265625 15.55078125 Z " fill="#F9FCFC" transform="translate(780.1875,324.75)"/>
<path d="M0 0 C8.3258801 5.92361004 13.21504621 14.89930896 16.3125 24.4375 C16.9003125 26.231875 16.9003125 26.231875 17.5 28.0625 C22.07325852 47.05911233 20.47308406 68.32726051 10.41796875 85.21484375 C4.29935197 94.58007351 -3.79933825 99.85483258 -14.6875 102.4375 C-26.33475249 103.7289437 -36.02635431 102.40322867 -45.875 95.8125 C-55.65549379 87.92500501 -61.7485351 74.6945714 -63.6875 62.4375 C-63.99510565 57.66392963 -64.01216848 52.90721116 -64 48.125 C-64.01611328 46.87009766 -64.03222656 45.61519531 -64.04882812 44.32226562 C-64.05691043 28.81232882 -59.64906278 14.73746544 -48.74609375 3.33984375 C-34.79386657 -9.55339086 -15.79553239 -9.33126485 0 0 Z M-42.93359375 14.0390625 C-52.77125722 27.49190296 -53.48356488 46.6767863 -51.39892578 62.6484375 C-49.70015492 71.87880587 -45.7141392 80.40794824 -38.3046875 86.34765625 C-31.16919917 91.20024719 -26.34996863 92.03344379 -17.6875 91.4375 C-11.02518301 90.08514909 -6.20669467 87.48043577 -1.80859375 82.16796875 C8.24841506 66.97745197 9.17551834 50.06314884 6.06640625 32.5390625 C3.67792256 22.71286534 -0.26504612 13.57575462 -9.125 8.125 C-21.70733812 2.1649451 -33.37138817 3.64620067 -42.93359375 14.0390625 Z " fill="#FAFCFD" transform="translate(926.6875,325.5625)"/>
<path d="M0 0 C5.51737352 4.04911379 10.36411221 8.58353307 12.23828125 15.359375 C12.30015625 16.04 12.36203125 16.720625 12.42578125 17.421875 C5.80078125 21.421875 5.80078125 21.421875 2.42578125 21.421875 C1.95140625 20.390625 1.47703125 19.359375 0.98828125 18.296875 C-2.12773789 12.78219364 -7.66056047 9.39309443 -13.57421875 7.421875 C-25.38458132 6.40422659 -25.38458132 6.40422659 -35.57421875 11.421875 C-39.19011138 16.3208263 -39.3802277 21.54952409 -38.57421875 27.421875 C-35.8641328 34.13256402 -29.84548327 36.57872037 -23.57421875 39.421875 C-20.21343965 40.79191915 -16.83174187 42.10660452 -13.44921875 43.421875 C-1.70986371 48.00724056 7.49857336 53.07908506 14.09375 64.24609375 C16.93905121 71.02975911 16.58288106 79.53693065 13.86328125 86.359375 C8.85926352 95.70944273 0.38581239 100.70341856 -9.484375 104.07421875 C-20.97350389 105.9854944 -32.61716469 104.55842919 -42.57421875 98.421875 C-45.06231652 96.58058822 -47.48194382 94.71030071 -49.57421875 92.421875 C-49.57421875 91.761875 -49.57421875 91.101875 -49.57421875 90.421875 C-50.23421875 90.421875 -50.89421875 90.421875 -51.57421875 90.421875 C-52.44049274 88.82421397 -53.2918834 87.21847556 -54.13671875 85.609375 C-54.61238281 84.71605469 -55.08804687 83.82273437 -55.578125 82.90234375 C-56.57421875 80.421875 -56.57421875 80.421875 -55.57421875 77.421875 C-53.5078125 76.25390625 -53.5078125 76.25390625 -51.01171875 75.234375 C-50.18542969 74.89019531 -49.35914063 74.54601562 -48.5078125 74.19140625 C-47.86972656 73.93746094 -47.23164063 73.68351562 -46.57421875 73.421875 C-46.23390625 74.07414062 -45.89359375 74.72640625 -45.54296875 75.3984375 C-41.56679482 82.56824049 -37.46501256 87.46014581 -29.75 90.5546875 C-21.75260153 92.73847897 -12.77306848 92.57754744 -5.34765625 88.69921875 C-1.63473744 86.02493582 0.01454896 82.65557187 1.42578125 78.421875 C1.8122477 72.62487826 1.61271357 68.48347339 -1.57421875 63.421875 C-9.10998441 57.81340798 -17.96477944 54.64486337 -26.65234375 51.29882812 C-35.23457957 47.87143523 -44.59758803 43.75710105 -49.13671875 35.234375 C-49.59175781 34.41582031 -50.04679687 33.59726562 -50.515625 32.75390625 C-53.17660715 26.89189022 -53.37845759 20.76208796 -52.57421875 14.421875 C-49.43736565 6.13410076 -43.84090262 1.05521694 -36.07421875 -2.828125 C-24.07792926 -7.84982758 -11.10284862 -6.80660219 0 0 Z " fill="#F8FCFC" transform="translate(558.57421875,324.578125)"/>
<path d="M0 0 C5.37184413 3.86269729 9.51661958 8.5342736 12.4609375 14.4921875 C12.4609375 15.4821875 12.4609375 16.4721875 12.4609375 17.4921875 C5.8359375 21.4921875 5.8359375 21.4921875 2.4609375 21.4921875 C1.9040625 20.4196875 1.3471875 19.3471875 0.7734375 18.2421875 C-2.04227961 13.35898581 -5.90250889 10.14216812 -11.1875 8.03515625 C-17.87236074 6.49164189 -26.52746844 5.9194931 -32.7890625 9.1171875 C-36.56851424 12.38125946 -38.20022901 14.89164049 -38.8515625 19.890625 C-39.04754035 23.96941406 -38.76462656 26.93364793 -37.2265625 30.7421875 C-30.74855823 37.37084303 -21.88871519 40.19687801 -13.4140625 43.4921875 C-1.92709627 47.97897056 9.02095296 53.29919841 14.3984375 65.1796875 C16.64586622 72.36015158 16.89997417 80.60679493 13.3984375 87.3671875 C7.55900539 96.24832938 0.65499892 100.78354765 -9.41796875 104.11328125 C-20.96100547 106.17529702 -32.49733673 104.4963027 -42.5390625 98.4921875 C-49.72192978 93.32052306 -54.72615324 87.19415193 -56.5390625 78.4921875 C-53.2390625 76.8421875 -49.9390625 75.1921875 -46.5390625 73.4921875 C-45.7140625 75.0184375 -44.8890625 76.5446875 -44.0390625 78.1171875 C-39.73770679 85.27935055 -34.61267924 89.28758367 -26.5390625 91.4921875 C-18.44848403 92.30788474 -10.36406114 92.40799048 -3.5390625 87.4921875 C1.17513187 81.71729939 2.08177173 76.71869791 1.4609375 69.4921875 C-0.13743916 63.66952966 -3.71047531 61.91799876 -8.63720703 59.03735352 C-14.40801311 55.96454251 -20.5244306 53.71577986 -26.6171875 51.36914062 C-35.19942332 47.94174773 -44.56243178 43.82741355 -49.1015625 35.3046875 C-49.55660156 34.48613281 -50.01164063 33.66757812 -50.48046875 32.82421875 C-53.1414509 26.96220272 -53.34330134 20.83240046 -52.5390625 14.4921875 C-49.4022094 6.20441326 -43.80574637 1.12552944 -36.0390625 -2.7578125 C-23.99688978 -7.79872201 -11.20216778 -6.65236425 0 0 Z " fill="#F8FCFC" transform="translate(641.5390625,324.5078125)"/>
<path d="M0 0 C32.32479296 0 32.32479296 0 40.33984375 7.94921875 C46.76756035 15.88933926 46.94706445 25.30361457 46.21875 35.09716797 C45.38063272 42.38766579 41.78790558 46.79791405 36.390625 51.4921875 C24.41191376 59.04738773 15.43061486 56 0 56 C0 37.52 0 19.04 0 0 Z " fill="#F5FAFA" transform="translate(675,447)"/>
<path d="M0 0 C4.62 0 9.24 0 14 0 C17.56128148 3.9084905 19.5181558 6.63327697 21.875 11.1875 C22.46023438 12.22326172 23.04546875 13.25902344 23.6484375 14.32617188 C25.46049226 17.53501884 27.22993891 20.76779873 29 24 C31.64 28.29 34.28 32.58 37 37 C37.33 24.79 37.66 12.58 38 0 C41.63 0 45.26 0 49 0 C49 18.15 49 36.3 49 55 C44.71 55 40.42 55 36 55 C33.01245015 51.99914257 31.69898857 50.25232952 29.875 46.625 C28.89858376 44.89184467 27.92201726 43.158774 26.9453125 41.42578125 C26.46481445 40.53197754 25.98431641 39.63817383 25.48925781 38.71728516 C23.56844174 35.21258304 21.48441294 31.82362227 19.37451172 28.43041992 C17.22605611 24.9681582 15.11685632 21.48167158 13 18 C12.67 30.21 12.34 42.42 12 55 C8.04 55 4.08 55 0 55 C0 36.85 0 18.7 0 0 Z " fill="#F9FCFC" transform="translate(612,448)"/>
<path d="M0 0 C4.95 0 9.9 0 15 0 C18.64745338 8.5519755 21.92378858 17.16549088 25 25.9375 C27.89544707 34.16690346 30.8658404 42.34495484 34.08203125 50.45532227 C35 53 35 53 35 55 C31.04 55 27.08 55 23 55 C21.02 49.555 21.02 49.555 19 44 C11.41 43.67 3.82 43.34 -4 43 C-4.66 45.97 -5.32 48.94 -6 52 C-6.66 52.99 -7.32 53.98 -8 55 C-10.6015625 55.29296875 -10.6015625 55.29296875 -13.625 55.1875 C-15.12933594 55.14689453 -15.12933594 55.14689453 -16.6640625 55.10546875 C-17.43492187 55.07066406 -18.20578125 55.03585937 -19 55 C-18.35071187 49.76407393 -16.74146717 45.20636582 -14.875 40.3125 C-14.24074272 38.62114725 -13.60663245 36.92973937 -12.97265625 35.23828125 C-12.64668457 34.37412598 -12.32071289 33.5099707 -11.98486328 32.61962891 C-10.40631078 28.42085143 -8.86011533 24.2102565 -7.3125 20 C-7.02157471 19.21044922 -6.73064941 18.42089844 -6.4309082 17.60742188 C-4.27058294 11.74430034 -2.12853177 5.87474769 0 0 Z " fill="#F8FCFC" transform="translate(569,448)"/>
<path d="M0 0 C30.64444444 0 30.64444444 0 38.0625 6.8125 C41.56564002 12.49127435 41.08864738 19.65982718 40 26 C37.76378475 30.27310211 35.00868883 32.92139068 30.78125 35.19140625 C27.06815696 36.27091504 23.51270201 36.21318685 19.6875 36.125 C15.8821875 36.063125 15.8821875 36.063125 12 36 C12 42.6 12 49.2 12 56 C8.04 56 4.08 56 0 56 C0 37.52 0 19.04 0 0 Z " fill="#F4FAFA" transform="translate(819,447)"/>
<path d="M0 0 C9.24 0 18.48 0 28 0 C28 34.98 28 69.96 28 106 C23.71 106 19.42 106 15 106 C15 74.65 15 43.3 15 11 C10.05 11 5.1 11 0 11 C0 7.37 0 3.74 0 0 Z " fill="#F8FCFC" transform="translate(816,321)"/>
<path d="M0 0 C9.24 0 18.48 0 28 0 C28 34.98 28 69.96 28 106 C23.71 106 19.42 106 15 106 C15 74.65 15 43.3 15 11 C10.05 11 5.1 11 0 11 C0 7.37 0 3.74 0 0 Z " fill="#F9FCFC" transform="translate(671,321)"/>
<path d="M0 0 C4.0853788 2.30912715 7.29558344 5.81077628 8.6328125 10.33984375 C8.74625 10.92636719 8.8596875 11.51289063 8.9765625 12.1171875 C7.5431225 12.64909291 6.10460883 13.16734008 4.6640625 13.6796875 C3.46330078 14.11474609 3.46330078 14.11474609 2.23828125 14.55859375 C-0.0234375 15.1171875 -0.0234375 15.1171875 -3.0234375 14.1171875 C-3.707142 12.79251004 -4.37307936 11.45855117 -5.0234375 10.1171875 C-8.72470609 7.64967511 -10.64567282 7.80997594 -15.0234375 8.1171875 C-17.37713557 8.99783677 -17.37713557 8.99783677 -19.0234375 10.1171875 C-19.0234375 12.7571875 -19.0234375 15.3971875 -19.0234375 18.1171875 C-17.1671875 18.4575 -17.1671875 18.4575 -15.2734375 18.8046875 C-6.99826742 20.65088842 3.35142493 23.64652534 8.265625 31.0625 C9.63835893 35.02985192 9.50573032 38.98837189 8.9765625 43.1171875 C6.76413811 47.54203628 4.02856634 50.31195407 -0.0234375 53.1171875 C-6.95530889 55.4278113 -17.98177955 55.6168223 -24.7734375 52.5546875 C-29.41717755 49.61191291 -32.3817224 45.43723441 -33.8359375 40.1796875 C-33.8978125 39.4990625 -33.9596875 38.8184375 -34.0234375 38.1171875 C-32.1671875 37.6221875 -32.1671875 37.6221875 -30.2734375 37.1171875 C-29.57734375 36.9315625 -28.88125 36.7459375 -28.1640625 36.5546875 C-26.0234375 36.1171875 -26.0234375 36.1171875 -22.0234375 36.1171875 C-20.62230134 38.07028638 -19.29004283 40.07427568 -18.0234375 42.1171875 C-14.32216891 44.58469989 -12.40120218 44.42439906 -8.0234375 44.1171875 C-5.66973943 43.23653823 -5.66973943 43.23653823 -4.0234375 42.1171875 C-4.0234375 39.8071875 -4.0234375 37.4971875 -4.0234375 35.1171875 C-4.78527344 34.80265625 -5.54710937 34.488125 -6.33203125 34.1640625 C-9.56610559 32.82359723 -12.79509184 31.47138538 -16.0234375 30.1171875 C-16.8896875 29.76011719 -17.7559375 29.40304687 -18.6484375 29.03515625 C-24.46443118 26.56925353 -29.47729089 24.23238678 -32.0234375 18.1171875 C-32.74295001 13.51565399 -32.45681407 10.00060897 -30.3984375 5.8046875 C-22.49229566 -3.14173616 -10.86517031 -4.14851957 0 0 Z " fill="#F8FCFC" transform="translate(919.0234375,448.8828125)"/>
<path d="M0 0 C2.86688299 2.23438122 5.28798915 4.35220567 6.31640625 7.89453125 C6.31640625 10.01953125 6.31640625 10.01953125 5.31640625 11.89453125 C1.71990533 13.4929761 -0.71756618 13.89453125 -4.68359375 13.89453125 C-6.30859375 11.51953125 -6.30859375 11.51953125 -7.68359375 8.89453125 C-9.67187046 6.47426898 -9.67187046 6.47426898 -13.55859375 6.58203125 C-17.13920337 6.65364344 -19.08150777 7.29244527 -21.68359375 9.89453125 C-21.37105409 12.78552311 -21.19102618 14.41941174 -19.02734375 16.4453125 C-16.22659695 18.1771076 -13.61224713 18.91837525 -10.43359375 19.76953125 C-3.31751222 21.88836452 2.41594332 23.68750006 6.31640625 30.26953125 C7.76689138 35.52753984 8.20713144 39.62270965 5.75390625 44.58203125 C2.80441038 49.26962289 -1.5132779 51.17109263 -6.68359375 52.89453125 C-15.25627545 53.71543047 -22.43984594 53.79457131 -29.71875 48.68359375 C-32.68898974 45.97908122 -34.14148845 43.60960311 -35.68359375 39.89453125 C-35.68359375 38.90453125 -35.68359375 37.91453125 -35.68359375 36.89453125 C-31.72359375 36.23453125 -27.76359375 35.57453125 -23.68359375 34.89453125 C-23.25046875 35.84328125 -22.81734375 36.79203125 -22.37109375 37.76953125 C-20.89057174 41.09495062 -20.89057174 41.09495062 -17.68359375 42.89453125 C-15.50172428 43.21033065 -15.50172428 43.21033065 -13.18359375 43.14453125 C-12.0234375 43.15226562 -12.0234375 43.15226562 -10.83984375 43.16015625 C-8.38845531 43.02191187 -8.38845531 43.02191187 -5.68359375 40.89453125 C-5.42699281 37.81531993 -5.28927871 35.68316132 -6.68359375 32.89453125 C-9.36241735 31.91180259 -12.03036731 31.0119958 -14.74609375 30.14453125 C-28.90926355 25.38763841 -28.90926355 25.38763841 -32.84375 19.015625 C-34.42856522 15.01304518 -34.41550121 11.10461843 -33.68359375 6.89453125 C-31.3425246 2.41234192 -27.60173398 -0.94743827 -22.80078125 -2.67578125 C-15.49034955 -4.1594482 -6.39412622 -4.19846339 0 0 Z " fill="#F9FCFC" transform="translate(537.68359375,450.10546875)"/>
<path d="M0 0 C10.56 0 21.12 0 32 0 C32 3.3 32 6.6 32 10 C25.4 10 18.8 10 12 10 C12 13.96 12 17.92 12 22 C17.94 22 23.88 22 30 22 C30 25.3 30 28.6 30 32 C24.06 32 18.12 32 12 32 C12 35.96 12 39.92 12 44 C18.6 44 25.2 44 32 44 C32 47.63 32 51.26 32 55 C21.44 55 10.88 55 0 55 C0 36.85 0 18.7 0 0 Z " fill="#F6FBFB" transform="translate(732,448)"/>
<path d="M0 0 C10.56 0 21.12 0 32 0 C32 3.3 32 6.6 32 10 C25.07 10 18.14 10 11 10 C11 13.96 11 17.92 11 22 C16.94 22 22.88 22 29 22 C29 25.3 29 28.6 29 32 C23.06 32 17.12 32 11 32 C11 35.96 11 39.92 11 44 C17.93 44 24.86 44 32 44 C32 47.63 32 51.26 32 55 C21.44 55 10.88 55 0 55 C0 36.85 0 18.7 0 0 Z " fill="#F8FCFC" transform="translate(776,448)"/>
<path d="M0 0 C13.82142857 0 13.82142857 0 18 3 C21.99919631 7.41290627 22.20331703 11.50281651 22.3125 17.3125 C22.34988281 18.60800781 22.38726563 19.90351563 22.42578125 21.23828125 C21.92770013 25.63875941 20.84576012 27.64035475 18 31 C13 34 13 34 0 34 C0 22.78 0 11.56 0 0 Z " fill="#31A6AB" transform="translate(687,458)"/>
<path d="M0 0 C1.28836509 0.57653261 2.5624855 1.18541756 3.82495117 1.81665039 C3.25139145 5.24961514 2.20068039 6.7514566 -0.37036133 9.05883789 C-1.00329102 9.65051758 -1.6362207 10.24219727 -2.28833008 10.85180664 C-3.6298641 12.07872416 -4.97887668 13.29751402 -6.33520508 14.50805664 C-10.14369813 17.99938018 -10.14369813 17.99938018 -11.54614258 22.80102539 C-9.5655503 27.15719986 -6.57411644 29.95002598 -3.11254883 33.19165039 C-2.11771484 34.15264648 -2.11771484 34.15264648 -1.1027832 35.13305664 C0.52904873 36.70618959 2.17137513 38.26644273 3.82495117 39.81665039 C3.01245117 41.75415039 3.01245117 41.75415039 1.82495117 43.81665039 C0.33995117 44.31165039 0.33995117 44.31165039 -1.17504883 44.81665039 C-4.1777227 42.94269248 -6.62779907 40.25910823 -9.17504883 37.81665039 C-9.93108398 37.11523926 -9.93108398 37.11523926 -10.70239258 36.3996582 C-12.35385195 34.86601878 -13.98485476 33.31296275 -15.61254883 31.75415039 C-16.14485107 31.26019775 -16.67715332 30.76624512 -17.22558594 30.25732422 C-20.66454694 26.89185243 -22.03817414 24.63283437 -22.17504883 19.81665039 C-20.51611328 17.28369141 -20.51611328 17.28369141 -18.03833008 14.82055664 C-17.15081055 13.93303711 -16.26329102 13.04551758 -15.34887695 12.13110352 C-14.40463867 11.22295898 -13.46040039 10.31481445 -12.48754883 9.37915039 C-11.10019531 7.97632813 -11.10019531 7.97632813 -9.68481445 6.54516602 C-2.78545993 -0.2348053 -2.78545993 -0.2348053 0 0 Z " fill="#F6FBFB" transform="translate(356.175048828125,389.183349609375)"/>
<path d="M0 0 C4 0 4 0 5.46484375 1.29296875 C5.95082031 1.91816406 6.43679688 2.54335938 6.9375 3.1875 C9.27927313 6.06453556 11.70030312 8.72458575 14.37890625 11.28515625 C15.27138062 12.14234253 15.27138062 12.14234253 16.18188477 13.0168457 C17.38556143 14.16427429 18.59824036 15.30233916 19.82006836 16.43041992 C21.5 18.046875 21.5 18.046875 24 21 C23.86303094 25.02470292 21.27538557 27.06943302 18.52734375 29.765625 C17.17866211 31.09980469 17.17866211 31.09980469 15.80273438 32.4609375 C14.85720703 33.38132812 13.91167969 34.30171875 12.9375 35.25 C11.97783027 36.19461673 11.01883771 37.13992195 10.06054688 38.0859375 C7.71361172 40.39749172 5.35996609 42.7017634 3 45 C1.35 44.34 -0.3 43.68 -2 43 C-1.89543216 39.06376755 -0.50421288 37.2369153 2.1953125 34.58984375 C4.16363267 32.73176555 6.15896555 30.90656592 8.16015625 29.08398438 C8.79050781 28.48779297 9.42085938 27.89160156 10.0703125 27.27734375 C10.65570801 26.74359131 11.24110352 26.20983887 11.84423828 25.65991211 C13.2105156 24.06250646 13.2105156 24.06250646 12.8828125 22 C11.84808687 19.65584282 10.69846743 18.44274016 8.8046875 16.72265625 C8.17175781 16.12646484 7.53882813 15.53027344 6.88671875 14.91601562 C5.5432806 13.6782265 4.19427653 12.4464518 2.83984375 11.22070312 C1.07186295 9.54491764 -0.55689796 7.96328999 -2 6 C-1.99260761 3.2759038 -1.94153606 1.94153606 0 0 Z " fill="#F7FBFB" transform="translate(397,389)"/>
<path d="M0 0 C2.625 0.375 2.625 0.375 5 1 C4.9518175 11.28696411 1.64254767 20.84530534 -1.28515625 30.59521484 C-2.60656128 35.04051525 -3.80385375 39.5196978 -5 44 C-9.75 45.125 -9.75 45.125 -12 44 C-11.5650053 35.01010963 -9.17496715 26.84190748 -6.65527344 18.25976562 C-6.03213426 16.11081771 -5.43618286 13.95657974 -4.8515625 11.796875 C-4.50867188 10.54390625 -4.16578125 9.2909375 -3.8125 8 C-3.50957031 6.88625 -3.20664062 5.7725 -2.89453125 4.625 C-2 2 -2 2 0 0 Z " fill="#F7FBFB" transform="translate(380,389)"/>
<path d="M0 0 C11.88452656 -0.4295612 11.88452656 -0.4295612 16 3 C17.57897833 4.57897833 17.24543509 6.19362572 17.3125 8.375 C17.34988281 9.16648437 17.38726563 9.95796875 17.42578125 10.7734375 C17 13 17 13 15.40234375 14.77734375 C12.21211744 16.40098738 9.81052718 16.29431582 6.25 16.1875 C4.1875 16.125625 2.125 16.06375 0 16 C0 10.72 0 5.44 0 0 Z " fill="#36A9AD" transform="translate(831,457)"/>
<path d="M0 0 C2.70702609 1.35351305 2.75142894 2.57501207 3.7265625 5.40234375 C4.0359375 6.29244141 4.3453125 7.18253906 4.6640625 8.09960938 C4.98117187 9.03611328 5.29828125 9.97261719 5.625 10.9375 C5.94984375 11.87013672 6.2746875 12.80277344 6.609375 13.76367188 C9 20.70954241 9 20.70954241 9 23 C3.72 23 -1.56 23 -7 23 C-6.33007518 19.65037589 -5.66670403 16.75897575 -4.58984375 13.57421875 C-4.32236328 12.77822266 -4.05488281 11.98222656 -3.77929688 11.16210938 C-3.36260742 9.93717773 -3.36260742 9.93717773 -2.9375 8.6875 C-2.65583984 7.85154297 -2.37417969 7.01558594 -2.08398438 6.15429688 C-1.39204818 4.10194376 -0.69639291 2.05084517 0 0 Z " fill="#37A9AD" transform="translate(576,459)"/>
</svg>
