<?xml version="1.0" encoding="UTF-8"?>
<svg version="1.1" xmlns="http://www.w3.org/2000/svg" width="200" height="200">
<path d="M0 0 C66 0 132 0 200 0 C200 66 200 132 200 200 C134 200 68 200 0 200 C0 134 0 68 0 0 Z " fill="#FCFDFD" transform="translate(0,0)"/>
<path d="M0 0 C66 0 132 0 200 0 C200 66 200 132 200 200 C134 200 68 200 0 200 C0 134 0 68 0 0 Z M86 9 C85.195625 11.371875 84.39125 13.74375 83.5625 16.1875 C83.31056885 16.92508545 83.0586377 17.6626709 82.79907227 18.42260742 C81.84987777 21.24654685 81.01433521 23.88516076 80.64453125 26.84765625 C80 29 80 29 77.8203125 30.328125 C76.48613281 30.78445312 76.48613281 30.78445312 75.125 31.25 C74.24070313 31.56453125 73.35640625 31.8790625 72.4453125 32.203125 C71.63835937 32.46609375 70.83140625 32.7290625 70 33 C69.01 33.33 68.02 33.66 67 34 C65.25415039 33.27148438 65.25415039 33.27148438 63.34765625 32.09375 C62.65349609 31.67996094 61.95933594 31.26617188 61.24414062 30.83984375 C59.79254892 29.94835592 58.3420218 29.05513227 56.89257812 28.16015625 C56.19712891 27.74636719 55.50167969 27.33257813 54.78515625 26.90625 C54.15488525 26.51759766 53.52461426 26.12894531 52.87524414 25.72851562 C50.39480469 24.76488702 49.43985548 24.94545414 47 26 C44.71039274 27.87604986 44.71039274 27.87604986 42.453125 30.25390625 C41.60878906 31.10791016 40.76445313 31.96191406 39.89453125 32.84179688 C39.02183594 33.73962891 38.14914063 34.63746094 37.25 35.5625 C36.36183594 36.46419922 35.47367188 37.36589844 34.55859375 38.29492188 C32.36551685 40.52337098 30.17973956 42.75851593 28 45 C28.84884766 46.64548828 28.84884766 46.64548828 29.71484375 48.32421875 C30.45604926 49.77848273 31.19691695 51.23291893 31.9375 52.6875 C32.49727539 53.7693457 32.49727539 53.7693457 33.06835938 54.87304688 C35.3796043 59.43307065 37.28923872 63.23470253 36.7421875 68.46484375 C35.56812382 71.81251181 34.59193171 73.50362337 32 76 C25.3166401 79.02062353 18.11380678 80.34156652 11 82 C11 91.9 11 101.8 11 112 C16.63390682 113.87796894 22.12446767 115.63319138 27.8359375 117.15625 C31.64082289 118.63974322 33.41079147 121.306441 35.3125 124.8125 C35.67988281 125.45832031 36.04726563 126.10414062 36.42578125 126.76953125 C37.8077968 132.13776854 33.86382449 137.16058778 31.25 141.625 C30.59515625 142.73101562 29.9403125 143.83703125 29.265625 144.9765625 C27.68390098 147.80546241 27.68390098 147.80546241 28.69433594 149.96606445 C30.13040566 152.20314315 31.65892002 153.77877153 33.625 155.56640625 C34.68460938 156.5419043 34.68460938 156.5419043 35.765625 157.53710938 C36.50296875 158.20548828 37.2403125 158.87386719 38 159.5625 C39.46085195 160.89437814 40.91929186 162.22890798 42.375 163.56640625 C43.02210937 164.15365479 43.66921875 164.74090332 44.3359375 165.34594727 C46 167 46 167 48 170 C53.69158259 168.32899885 58.13823985 165.54828612 63.09765625 162.36328125 C67.05386574 160.50498097 69.32161656 161.40340155 73.33178711 162.82885742 C77.99992799 165.08040639 80.44292273 166.8836379 82.19140625 171.86328125 C82.69069169 173.66853006 83.13984975 175.48778742 83.5625 177.3125 C84.366875 180.509375 85.17125 183.70625 86 187 C95.9 187 105.8 187 116 187 C117.2375 182.91625 117.2375 182.91625 118.5 178.75 C118.89155273 177.47334473 118.89155273 177.47334473 119.29101562 176.17089844 C119.49404297 175.4905957 119.69707031 174.81029297 119.90625 174.109375 C120.11572266 173.41811523 120.32519531 172.72685547 120.54101562 172.01464844 C121.14808784 169.69436736 121.14808784 169.69436736 121 166 C122.37291868 165.51490207 123.74846703 165.03724487 125.125 164.5625 C125.89070313 164.29566406 126.65640625 164.02882812 127.4453125 163.75390625 C128.28835937 163.50511719 129.13140625 163.25632813 130 163 C130.93328125 162.71898437 131.8665625 162.43796875 132.828125 162.1484375 C137.30521355 161.93891858 139.8932063 163.76172281 143.625 166.0625 C146.06884087 167.56584699 148.37475713 168.79404757 151 170 C156.41832399 168.17869175 160.35013765 163.10060221 164.3125 159.1875 C165.16134766 158.37990234 166.01019531 157.57230469 166.88476562 156.74023438 C167.68205078 155.95326172 168.47933594 155.16628906 169.30078125 154.35546875 C170.03466064 153.64028076 170.76854004 152.92509277 171.5246582 152.18823242 C173.27016032 150.07961114 173.27016032 150.07961114 172.83520508 147.40478516 C171.76783756 144.33154047 170.16162444 141.90302679 168.375 139.1875 C164.44526851 132.61647358 164.44526851 132.61647358 164.875 128.6875 C165.431875 126.8621875 165.431875 126.8621875 166 125 C166.34160156 123.82824219 166.68320313 122.65648438 167.03515625 121.44921875 C169.08263172 117.85494272 169.31684218 117.48988267 172.94140625 116.2578125 C174.47435273 115.85113936 176.01545096 115.47420941 177.5625 115.125 C179.10565951 114.73252012 180.64863716 114.33932428 182.19140625 113.9453125 C183.44824219 113.63335937 184.70507812 113.32140625 186 113 C186.66 112.67 187.32 112.34 188 112 C188 102.1 188 92.2 188 82 C184.968125 81.236875 181.93625 80.47375 178.8125 79.6875 C173.90899501 78.2770943 170.05522389 77.15299223 166.5546875 73.328125 C164.74038753 69.4921765 163.49602771 66.76107172 164.6953125 62.5703125 C166.856524 58.31259643 169.25129861 54.19364069 171.63671875 50.05859375 C173.18099595 47.26260042 173.18099595 47.26260042 172.82641602 45.08154297 C170.99427793 40.46682826 166.69915982 37.14471861 163.25 33.6875 C162.03183594 32.41422852 162.03183594 32.41422852 160.7890625 31.11523438 C159.99757812 30.31794922 159.20609375 29.52066406 158.390625 28.69921875 C157.3082959 27.59839966 157.3082959 27.59839966 156.20410156 26.4753418 C154.08287416 24.73202105 154.08287416 24.73202105 151.41845703 25.16479492 C147.06633476 26.66778405 143.27777705 29.23084107 139.3515625 31.6015625 C135.25303257 33.31167173 133.27281316 33.08951998 129 32 C127.77152344 31.69449219 126.54304688 31.38898437 125.27734375 31.07421875 C120.41130659 27.99452181 119.88596848 24.20594389 118.5625 18.8125 C117.2940625 13.9553125 117.2940625 13.9553125 116 9 C106.1 9 96.2 9 86 9 Z " fill="#26A2A6" transform="translate(0,0)"/>
<path d="M0 0 C0.91507324 0.00644531 1.83014648 0.01289062 2.77294922 0.01953125 C16.21718881 0.3772285 26.52961197 4.9129865 36.875 13.5 C38.15503906 14.47259766 38.15503906 14.47259766 39.4609375 15.46484375 C47.75987584 22.46119792 54.13730798 34.88861294 55.06787109 45.75146484 C55.68639397 64.63328135 52.99421909 79.82531624 39.625 94.25 C27.59235125 105.52383307 13.85284245 110.02101878 -2.3515625 109.74609375 C-17.21082858 108.77701118 -30.00401763 102.33660738 -40.125 91.5 C-45.57715749 85.04796587 -49.60554128 78.57552821 -52.125 70.5 C-52.34929688 69.80777344 -52.57359375 69.11554688 -52.8046875 68.40234375 C-56.58260264 54.55861362 -54.19412582 40.39401012 -47.56640625 27.91015625 C-39.30458027 14.09566674 -27.77091071 6.01956562 -12.5456543 1.10644531 C-8.37152019 0.06070158 -4.28635424 -0.03185104 0 0 Z " fill="#28A3A7" transform="translate(100.125,42.5)"/>
<path d="M0 0 C1.28836509 0.57653261 2.5624855 1.18541756 3.82495117 1.81665039 C3.25139145 5.24961514 2.20068039 6.7514566 -0.37036133 9.05883789 C-1.00329102 9.65051758 -1.6362207 10.24219727 -2.28833008 10.85180664 C-3.6298641 12.07872416 -4.97887668 13.29751402 -6.33520508 14.50805664 C-10.14369813 17.99938018 -10.14369813 17.99938018 -11.54614258 22.80102539 C-9.5655503 27.15719986 -6.57411644 29.95002598 -3.11254883 33.19165039 C-2.11771484 34.15264648 -2.11771484 34.15264648 -1.1027832 35.13305664 C0.52904873 36.70618959 2.17137513 38.26644273 3.82495117 39.81665039 C3.01245117 41.75415039 3.01245117 41.75415039 1.82495117 43.81665039 C0.33995117 44.31165039 0.33995117 44.31165039 -1.17504883 44.81665039 C-4.1777227 42.94269248 -6.62779907 40.25910823 -9.17504883 37.81665039 C-9.93108398 37.11523926 -9.93108398 37.11523926 -10.70239258 36.3996582 C-12.35385195 34.86601878 -13.98485476 33.31296275 -15.61254883 31.75415039 C-16.14485107 31.26019775 -16.67715332 30.76624512 -17.22558594 30.25732422 C-20.66454694 26.89185243 -22.03817414 24.63283437 -22.17504883 19.81665039 C-20.51611328 17.28369141 -20.51611328 17.28369141 -18.03833008 14.82055664 C-17.15081055 13.93303711 -16.26329102 13.04551758 -15.34887695 12.13110352 C-14.40463867 11.22295898 -13.46040039 10.31481445 -12.48754883 9.37915039 C-11.10019531 7.97632812 -11.10019531 7.97632812 -9.68481445 6.54516602 C-2.78545993 -0.2348053 -2.78545993 -0.2348053 0 0 Z " fill="#F6FBFB" transform="translate(78.175048828125,76.183349609375)"/>
<path d="M0 0 C4 0 4 0 5.46484375 1.29296875 C5.95082031 1.91816406 6.43679687 2.54335937 6.9375 3.1875 C9.27927313 6.06453556 11.70030312 8.72458575 14.37890625 11.28515625 C15.27138062 12.14234253 15.27138062 12.14234253 16.18188477 13.0168457 C17.38556143 14.16427429 18.59824036 15.30233916 19.82006836 16.43041992 C21.5 18.046875 21.5 18.046875 24 21 C23.86303094 25.02470292 21.27538557 27.06943302 18.52734375 29.765625 C17.17866211 31.09980469 17.17866211 31.09980469 15.80273438 32.4609375 C14.85720703 33.38132813 13.91167969 34.30171875 12.9375 35.25 C11.97783027 36.19461673 11.01883771 37.13992195 10.06054688 38.0859375 C7.71361172 40.39749172 5.35996609 42.7017634 3 45 C1.35 44.34 -0.3 43.68 -2 43 C-1.89543216 39.06376755 -0.50421288 37.2369153 2.1953125 34.58984375 C4.16363267 32.73176555 6.15896555 30.90656592 8.16015625 29.08398438 C8.79050781 28.48779297 9.42085937 27.89160156 10.0703125 27.27734375 C10.65570801 26.74359131 11.24110352 26.20983887 11.84423828 25.65991211 C13.2105156 24.06250646 13.2105156 24.06250646 12.8828125 22 C11.84808687 19.65584282 10.69846743 18.44274016 8.8046875 16.72265625 C8.17175781 16.12646484 7.53882812 15.53027344 6.88671875 14.91601562 C5.5432806 13.6782265 4.19427653 12.4464518 2.83984375 11.22070312 C1.07186295 9.54491764 -0.55689796 7.96328999 -2 6 C-1.99260761 3.2759038 -1.94153606 1.94153606 0 0 Z " fill="#F7FBFB" transform="translate(119,76)"/>
<path d="M0 0 C2.625 0.375 2.625 0.375 5 1 C4.9518175 11.28696411 1.64254767 20.84530534 -1.28515625 30.59521484 C-2.60656128 35.04051525 -3.80385375 39.5196978 -5 44 C-9.75 45.125 -9.75 45.125 -12 44 C-11.5650053 35.01010963 -9.17496715 26.84190748 -6.65527344 18.25976562 C-6.03213426 16.11081771 -5.43618286 13.95657974 -4.8515625 11.796875 C-4.50867188 10.54390625 -4.16578125 9.2909375 -3.8125 8 C-3.50957031 6.88625 -3.20664063 5.7725 -2.89453125 4.625 C-2 2 -2 2 0 0 Z " fill="#F7FBFB" transform="translate(102,76)"/>
</svg>
